<?xml version="1.0" encoding="UTF-8" standalone="no"?><!-- Generator: Gravit.io --><svg xmlns="http://www.w3.org/2000/svg" xmlns:xlink="http://www.w3.org/1999/xlink" style="isolation:isolate" viewBox="-2 -2 139.098 139.098" width="139.098pt" height="139.098pt"><defs><clipPath id="_clipPath_ierD3WJLIYT6iptLfcpmfLY3pmf9nxY2"><rect width="135.098" height="135.098"/></clipPath></defs><g clip-path="url(#_clipPath_ierD3WJLIYT6iptLfcpmfLY3pmf9nxY2)"><linearGradient id="_lgradient_4" x1="0" y1="0.5" x2="1" y2="0.5" gradientTransform="matrix(135.098,0,0,135.098,0,0)" gradientUnits="userSpaceOnUse"><stop offset="0%" stop-opacity="1" style="stop-color:rgb(247,107,28)"/><stop offset="100%" stop-opacity="1" style="stop-color:rgb(250,217,97)"/></linearGradient><path d=" M 69.746 135.062 C 53.489 135.591 37.042 130.307 23.833 119.098 L 29.78 112.752 C 31.069 111.376 30.957 109.271 29.626 108.024 C 28.25 106.735 26.145 106.846 24.898 108.178 L 18.952 114.524 C -5.136 89.621 -6.418 50.25 16 23.833 L 22.346 29.78 C 23.722 31.069 25.827 30.957 27.074 29.626 C 28.363 28.25 28.252 26.145 26.921 24.898 L 20.574 18.952 C 45.477 -5.136 84.848 -6.418 111.265 16 L 105.319 22.346 C 104.03 23.722 104.141 25.827 105.472 27.074 C 106.848 28.363 108.953 28.252 110.2 26.921 L 116.147 20.574 C 140.235 45.477 141.516 84.848 119.098 111.265 L 112.752 105.319 C 111.376 104.03 109.271 104.141 108.024 105.472 C 106.735 106.848 106.846 108.953 108.178 110.2 L 114.524 116.147 C 102.073 128.191 86.004 134.533 69.746 135.062 L 69.746 135.062 Z  M 63.002 60.801 C 60.714 62.291 59.199 64.872 59.199 67.804 C 59.199 72.413 62.941 76.154 67.549 76.154 C 72.158 76.154 75.899 72.413 75.899 67.804 C 75.899 64.881 74.394 62.306 72.116 60.815 L 70.323 44.597 L 67.558 19.604 L 64.794 44.597 L 63.002 60.801 Z " fill-rule="evenodd" fill="url(#_lgradient_4)"/></g></svg>