<?xml version="1.0" encoding="UTF-8" standalone="no"?><!-- Generator: Gravit.io --><svg xmlns="http://www.w3.org/2000/svg" xmlns:xlink="http://www.w3.org/1999/xlink" style="isolation:isolate" viewBox="-2 -2 980.117 186.221" width="980.117pt" height="186.221pt"><defs><clipPath id="_clipPath_miOoOIkolHm5DVsvfrlSEFVj8VX1yo3x"><rect width="976.117" height="182.221"/></clipPath></defs><g clip-path="url(#_clipPath_miOoOIkolHm5DVsvfrlSEFVj8VX1yo3x)"><g><path d=" M 257.217 2.831 L 257.217 44.831 L 213.397 44.831 L 213.397 2.831 L 198.137 2.831 L 198.137 99.711 L 213.397 99.711 L 213.397 58.411 L 257.217 58.411 L 257.217 99.711 L 272.477 99.711 L 272.477 2.831 L 257.217 2.831 Z  M 346.257 30.831 L 346.257 40.771 C 340.237 33.771 331.417 29.571 321.197 29.571 C 301.737 29.571 287.457 44.551 287.457 65.271 C 287.457 85.991 301.737 100.971 321.197 100.971 C 331.417 100.971 340.237 96.771 346.257 89.771 L 346.257 99.711 L 360.537 99.711 L 360.537 30.831 L 346.257 30.831 Z  M 324.137 88.511 C 311.397 88.511 302.157 78.851 302.157 65.271 C 302.157 51.831 311.397 42.031 324.137 42.031 C 337.017 42.031 346.257 51.831 346.257 65.271 C 346.257 78.851 337.017 88.511 324.137 88.511 Z  M 417.657 29.571 C 407.297 29.571 398.477 33.771 392.457 40.771 L 392.457 30.831 L 378.177 30.831 L 378.177 127.711 L 392.457 127.711 L 392.457 89.771 C 398.477 96.771 407.297 100.971 417.657 100.971 C 437.117 100.971 451.257 85.991 451.257 65.271 C 451.257 44.551 437.117 29.571 417.657 29.571 Z  M 414.577 88.511 C 401.697 88.511 392.457 78.851 392.457 65.271 C 392.457 51.831 401.697 42.031 414.577 42.031 C 427.317 42.031 436.557 51.831 436.557 65.271 C 436.557 78.851 427.317 88.511 414.577 88.511 Z  M 504.317 29.571 C 493.957 29.571 485.137 33.771 479.117 40.771 L 479.117 30.831 L 464.837 30.831 L 464.837 127.711 L 479.117 127.711 L 479.117 89.771 C 485.137 96.771 493.957 100.971 504.317 100.971 C 523.777 100.971 537.917 85.991 537.917 65.271 C 537.917 44.551 523.777 29.571 504.317 29.571 Z  M 501.237 88.511 C 488.357 88.511 479.117 78.851 479.117 65.271 C 479.117 51.831 488.357 42.031 501.237 42.031 C 513.977 42.031 523.217 51.831 523.217 65.271 C 523.217 78.851 513.977 88.511 501.237 88.511 Z  M 599.517 30.831 L 578.237 77.731 L 556.677 30.831 L 541.417 30.831 L 571.517 92.011 L 553.597 127.291 L 568.717 127.291 L 614.497 30.831 L 599.517 30.831 Z  M 692.477 2.831 L 617.857 2.831 L 617.857 16.411 L 647.537 16.411 L 647.537 99.711 L 662.797 99.711 L 662.797 16.411 L 692.477 16.411 L 692.477 2.831 Z  M 719.637 12.211 C 719.637 7.171 715.857 3.811 710.537 3.811 C 705.077 3.811 701.437 7.171 701.437 12.211 C 701.437 17.111 705.077 20.611 710.537 20.611 C 715.857 20.611 719.637 17.111 719.637 12.211 Z  M 703.397 30.831 L 703.397 99.711 L 717.677 99.711 L 717.677 30.831 L 703.397 30.831 Z  M 812.177 29.571 C 802.097 29.571 794.117 34.471 790.197 42.451 C 786.557 34.331 779.137 29.571 769.477 29.571 C 760.797 29.571 753.517 33.351 749.457 40.071 L 749.457 30.831 L 735.177 30.831 L 735.177 99.711 L 749.457 99.711 L 749.457 56.451 C 749.457 47.071 755.057 41.051 764.017 41.051 C 773.117 41.051 778.437 47.071 778.437 56.451 L 778.437 99.711 L 792.857 99.711 L 792.857 56.451 C 792.857 47.071 798.457 41.051 807.417 41.051 C 816.377 41.051 821.837 47.071 821.837 56.451 L 821.837 99.711 L 836.117 99.711 L 836.117 54.631 C 836.117 39.511 826.317 29.571 812.177 29.571 Z  M 922.497 65.411 C 922.357 44.551 907.097 29.571 885.817 29.571 C 864.537 29.571 848.997 44.551 848.997 65.271 C 848.997 85.991 864.537 100.971 885.817 100.971 C 902.757 100.971 917.457 90.051 921.377 74.791 L 906.817 74.791 C 904.157 83.051 895.757 89.211 885.957 89.211 C 874.057 89.211 864.957 81.231 863.137 69.751 L 922.077 69.751 C 922.357 68.351 922.497 66.811 922.497 65.411 Z  M 885.957 41.331 C 897.297 41.331 906.397 48.471 908.777 58.691 L 863.557 58.691 C 866.077 48.331 874.757 41.331 885.957 41.331 Z  M 950.217 46.931 L 950.217 30.831 L 935.937 30.831 L 935.937 99.711 L 950.217 99.711 L 950.217 65.691 C 950.217 51.551 960.157 43.151 976.117 43.151 L 976.117 29.011 C 963.937 29.011 954.837 35.591 950.217 46.931 Z " fill="rgb(30,30,30)"/><path d=" M 842.321 140.297 L 842.321 154.397 L 827.61 154.397 L 827.61 140.297 L 822.487 140.297 L 822.487 172.821 L 827.61 172.821 L 827.61 158.956 L 842.321 158.956 L 842.321 172.821 L 847.444 172.821 L 847.444 140.297 L 842.321 140.297 Z  M 873.013 149.697 L 873.013 153.034 C 870.992 150.684 868.031 149.274 864.6 149.274 C 858.067 149.274 853.273 154.303 853.273 161.259 C 853.273 168.215 858.067 173.244 864.6 173.244 C 868.031 173.244 870.992 171.834 873.013 169.484 L 873.013 172.821 L 877.807 172.821 L 877.807 149.697 L 873.013 149.697 Z  M 865.587 169.061 C 861.31 169.061 858.208 165.818 858.208 161.259 C 858.208 156.747 861.31 153.457 865.587 153.457 C 869.911 153.457 873.013 156.747 873.013 161.259 C 873.013 165.818 869.911 169.061 865.587 169.061 Z  M 897.783 149.274 C 894.305 149.274 891.344 150.684 889.323 153.034 L 889.323 149.697 L 884.529 149.697 L 884.529 182.221 L 889.323 182.221 L 889.323 169.484 C 891.344 171.834 894.305 173.244 897.783 173.244 C 904.316 173.244 909.063 168.215 909.063 161.259 C 909.063 154.303 904.316 149.274 897.783 149.274 Z  M 896.749 169.061 C 892.425 169.061 889.323 165.818 889.323 161.259 C 889.323 156.747 892.425 153.457 896.749 153.457 C 901.026 153.457 904.128 156.747 904.128 161.259 C 904.128 165.818 901.026 169.061 896.749 169.061 Z  M 927.676 149.274 C 924.198 149.274 921.237 150.684 919.216 153.034 L 919.216 149.697 L 914.422 149.697 L 914.422 182.221 L 919.216 182.221 L 919.216 169.484 C 921.237 171.834 924.198 173.244 927.676 173.244 C 934.209 173.244 938.956 168.215 938.956 161.259 C 938.956 154.303 934.209 149.274 927.676 149.274 Z  M 926.642 169.061 C 922.318 169.061 919.216 165.818 919.216 161.259 C 919.216 156.747 922.318 153.457 926.642 153.457 C 930.919 153.457 934.021 156.747 934.021 161.259 C 934.021 165.818 930.919 169.061 926.642 169.061 Z  M 960.436 149.697 L 953.292 165.442 L 946.054 149.697 L 940.931 149.697 L 951.036 170.236 L 945.02 182.08 L 950.096 182.08 L 965.465 149.697 L 960.436 149.697 Z  M 969.931 166.664 C 967.91 166.664 966.5 167.98 966.5 169.907 C 966.5 171.834 967.91 173.15 969.931 173.15 C 971.905 173.15 973.362 171.834 973.362 169.907 C 973.362 167.98 971.905 166.664 969.931 166.664 Z  M 767.776 156.042 C 770.878 154.867 772.899 152.094 772.899 148.522 C 772.899 143.634 769.186 140.297 764.016 140.297 L 749.258 140.297 L 749.258 172.821 L 765.473 172.821 C 770.596 172.821 774.262 169.343 774.262 164.267 C 774.262 160.037 771.677 156.935 767.776 156.042 Z  M 767.87 149.509 C 767.87 152.329 765.849 154.397 763.029 154.397 L 754.381 154.397 L 754.381 144.762 L 763.029 144.762 C 765.849 144.762 767.87 146.736 767.87 149.509 Z  M 764.204 168.356 L 754.381 168.356 L 754.381 158.486 L 764.204 158.486 C 766.977 158.486 769.045 160.554 769.045 163.421 C 769.045 166.288 766.977 168.356 764.204 168.356 Z  M 802.98 161.306 C 802.933 154.303 797.81 149.274 790.666 149.274 C 783.522 149.274 778.305 154.303 778.305 161.259 C 778.305 168.215 783.522 173.244 790.666 173.244 C 796.353 173.244 801.288 169.578 802.604 164.455 L 797.716 164.455 C 796.823 167.228 794.003 169.296 790.713 169.296 C 786.718 169.296 783.663 166.617 783.052 162.763 L 802.839 162.763 C 802.933 162.293 802.98 161.776 802.98 161.306 Z  M 790.713 153.222 C 794.52 153.222 797.575 155.619 798.374 159.05 L 783.193 159.05 C 784.039 155.572 786.953 153.222 790.713 153.222 Z  M 637.157 140.297 L 612.106 140.297 L 612.106 144.856 L 622.07 144.856 L 622.07 172.821 L 627.193 172.821 L 627.193 144.856 L 637.157 144.856 L 637.157 140.297 Z  M 647.075 143.446 C 647.075 141.754 645.806 140.626 644.02 140.626 C 642.187 140.626 640.965 141.754 640.965 143.446 C 640.965 145.091 642.187 146.266 644.02 146.266 C 645.806 146.266 647.075 145.091 647.075 143.446 Z  M 641.623 149.697 L 641.623 172.821 L 646.417 172.821 L 646.417 149.697 L 641.623 149.697 Z  M 678.942 149.274 C 675.558 149.274 672.879 150.919 671.563 153.598 C 670.341 150.872 667.85 149.274 664.607 149.274 C 661.693 149.274 659.249 150.543 657.886 152.799 L 657.886 149.697 L 653.092 149.697 L 653.092 172.821 L 657.886 172.821 L 657.886 158.298 C 657.886 155.149 659.766 153.128 662.774 153.128 C 665.829 153.128 667.615 155.149 667.615 158.298 L 667.615 172.821 L 672.456 172.821 L 672.456 158.298 C 672.456 155.149 674.336 153.128 677.344 153.128 C 680.352 153.128 682.185 155.149 682.185 158.298 L 682.185 172.821 L 686.979 172.821 L 686.979 157.687 C 686.979 152.611 683.689 149.274 678.942 149.274 Z  M 716.778 161.306 C 716.731 154.303 711.608 149.274 704.464 149.274 C 697.32 149.274 692.103 154.303 692.103 161.259 C 692.103 168.215 697.32 173.244 704.464 173.244 C 710.151 173.244 715.086 169.578 716.402 164.455 L 711.514 164.455 C 710.621 167.228 707.801 169.296 704.511 169.296 C 700.516 169.296 697.461 166.617 696.85 162.763 L 716.637 162.763 C 716.731 162.293 716.778 161.776 716.778 161.306 Z  M 704.511 153.222 C 708.318 153.222 711.373 155.619 712.172 159.05 L 696.991 159.05 C 697.837 155.572 700.751 153.222 704.511 153.222 Z  M 724.722 166.664 C 722.701 166.664 721.291 167.98 721.291 169.907 C 721.291 171.834 722.701 173.15 724.722 173.15 C 726.696 173.15 728.153 171.834 728.153 169.907 C 728.153 167.98 726.696 166.664 724.722 166.664 Z  M 499.066 139.874 C 492.063 139.874 487.222 143.54 487.222 149.415 C 487.222 161.541 506.398 155.619 506.398 163.703 C 506.398 166.946 503.437 169.061 499.16 169.061 C 494.272 169.061 491.452 166.335 491.405 162.622 L 486.282 162.622 C 486.47 168.967 491.264 173.244 498.925 173.244 C 506.398 173.244 511.615 169.531 511.615 163.515 C 511.615 151.06 492.439 157.217 492.439 149.133 C 492.439 145.984 495.118 144.057 498.925 144.057 C 503.014 144.057 505.646 146.313 505.787 150.073 L 510.769 150.073 C 510.628 143.822 505.834 139.874 499.066 139.874 Z  M 535.492 149.697 L 535.492 153.034 C 533.471 150.684 530.51 149.274 527.079 149.274 C 520.546 149.274 515.752 154.303 515.752 161.259 C 515.752 168.215 520.546 173.244 527.079 173.244 C 530.51 173.244 533.471 171.834 535.492 169.484 L 535.492 172.821 L 540.286 172.821 L 540.286 149.697 L 535.492 149.697 Z  M 528.066 169.061 C 523.789 169.061 520.687 165.818 520.687 161.259 C 520.687 156.747 523.789 153.457 528.066 153.457 C 532.39 153.457 535.492 156.747 535.492 161.259 C 535.492 165.818 532.39 169.061 528.066 169.061 Z  M 563.317 149.697 L 556.455 168.074 L 549.593 149.697 L 544.47 149.697 L 553.588 172.821 L 559.322 172.821 L 568.44 149.697 L 563.317 149.697 Z  M 595.325 161.306 C 595.278 154.303 590.155 149.274 583.011 149.274 C 575.867 149.274 570.65 154.303 570.65 161.259 C 570.65 168.215 575.867 173.244 583.011 173.244 C 588.698 173.244 593.633 169.578 594.949 164.455 L 590.061 164.455 C 589.168 167.228 586.348 169.296 583.058 169.296 C 579.063 169.296 576.008 166.617 575.397 162.763 L 595.184 162.763 C 595.278 162.293 595.325 161.776 595.325 161.306 Z  M 583.058 153.222 C 586.865 153.222 589.92 155.619 590.719 159.05 L 575.538 159.05 C 576.384 155.572 579.298 153.222 583.058 153.222 Z  M 337.943 139.874 C 330.94 139.874 326.099 143.54 326.099 149.415 C 326.099 161.541 345.275 155.619 345.275 163.703 C 345.275 166.946 342.314 169.061 338.037 169.061 C 333.149 169.061 330.329 166.335 330.282 162.622 L 325.159 162.622 C 325.347 168.967 330.141 173.244 337.802 173.244 C 345.275 173.244 350.492 169.531 350.492 163.515 C 350.492 151.06 331.316 157.217 331.316 149.133 C 331.316 145.984 333.995 144.057 337.802 144.057 C 341.891 144.057 344.523 146.313 344.664 150.073 L 349.646 150.073 C 349.505 143.822 344.711 139.874 337.943 139.874 Z  M 381.842 149.274 C 378.458 149.274 375.779 150.919 374.463 153.598 C 373.241 150.872 370.75 149.274 367.507 149.274 C 364.593 149.274 362.149 150.543 360.786 152.799 L 360.786 149.697 L 355.992 149.697 L 355.992 172.821 L 360.786 172.821 L 360.786 158.298 C 360.786 155.149 362.666 153.128 365.674 153.128 C 368.729 153.128 370.515 155.149 370.515 158.298 L 370.515 172.821 L 375.356 172.821 L 375.356 158.298 C 375.356 155.149 377.236 153.128 380.244 153.128 C 383.252 153.128 385.085 155.149 385.085 158.298 L 385.085 172.821 L 389.879 172.821 L 389.879 157.687 C 389.879 152.611 386.589 149.274 381.842 149.274 Z  M 414.743 149.697 L 414.743 153.034 C 412.722 150.684 409.761 149.274 406.33 149.274 C 399.797 149.274 395.003 154.303 395.003 161.259 C 395.003 168.215 399.797 173.244 406.33 173.244 C 409.761 173.244 412.722 171.834 414.743 169.484 L 414.743 172.821 L 419.537 172.821 L 419.537 149.697 L 414.743 149.697 Z  M 407.317 169.061 C 403.04 169.061 399.938 165.818 399.938 161.259 C 399.938 156.747 403.04 153.457 407.317 153.457 C 411.641 153.457 414.743 156.747 414.743 161.259 C 414.743 165.818 411.641 169.061 407.317 169.061 Z  M 431.053 155.102 L 431.053 149.697 L 426.259 149.697 L 426.259 172.821 L 431.053 172.821 L 431.053 161.4 C 431.053 156.653 434.39 153.833 439.748 153.833 L 439.748 149.086 C 435.659 149.086 432.604 151.295 431.053 155.102 Z  M 456.152 149.697 L 450.935 149.697 L 450.935 143.728 L 446.094 143.728 L 446.094 149.697 L 441.817 149.697 L 441.817 153.739 L 446.094 153.739 L 446.094 172.821 L 450.935 172.821 L 450.935 153.739 L 456.152 153.739 L 456.152 149.697 Z  M 463.626 166.664 C 461.605 166.664 460.195 167.98 460.195 169.907 C 460.195 171.834 461.605 173.15 463.626 173.15 C 465.6 173.15 467.057 171.834 467.057 169.907 C 467.057 167.98 465.6 166.664 463.626 166.664 Z  M 234.397 140.297 L 227.159 165.818 L 219.874 140.297 L 215.315 140.297 L 208.077 165.818 L 200.886 140.297 L 195.575 140.297 L 205.163 172.821 L 210.286 172.821 L 217.618 147.535 L 224.903 172.821 L 230.12 172.821 L 239.708 140.297 L 234.397 140.297 Z  M 252.54 149.274 C 245.396 149.274 240.179 154.303 240.179 161.259 C 240.179 168.215 245.396 173.244 252.54 173.244 C 259.684 173.244 264.854 168.215 264.854 161.259 C 264.854 154.303 259.684 149.274 252.54 149.274 Z  M 252.493 153.457 C 256.817 153.457 259.919 156.747 259.919 161.259 C 259.919 165.818 256.817 169.061 252.493 169.061 C 248.216 169.061 245.114 165.818 245.114 161.259 C 245.114 156.747 248.216 153.457 252.493 153.457 Z  M 275.007 155.102 L 275.007 149.697 L 270.213 149.697 L 270.213 172.821 L 275.007 172.821 L 275.007 161.4 C 275.007 156.653 278.344 153.833 283.702 153.833 L 283.702 149.086 C 279.613 149.086 276.558 151.295 275.007 155.102 Z  M 308.143 149.697 L 302.456 149.697 L 292.633 160.037 L 292.633 140.297 L 287.839 140.297 L 287.839 172.821 L 292.633 172.821 L 292.633 161.588 L 302.456 172.821 L 308.143 172.821 L 297.474 160.742 L 308.143 149.697 Z " fill="rgb(30,30,30)"/><g><linearGradient id="_lgradient_5" x1="0" y1="0.5" x2="1" y2="0.5" gradientTransform="matrix(135.165,0,0,135.165,14.319,32.363)" gradientUnits="userSpaceOnUse"><stop offset="0%" stop-opacity="1" style="stop-color:rgb(247,107,28)"/><stop offset="100%" stop-opacity="1" style="stop-color:rgb(250,217,97)"/></linearGradient><path d=" M 85.343 91.826 C 80.902 89.908 75.748 91.953 73.83 96.393 C 71.912 100.833 73.957 105.987 78.397 107.905 C 82.696 109.762 87.629 107.852 89.685 103.705 L 134.469 100.79 L 89.961 96.471 C 89.112 94.448 87.52 92.766 85.343 91.826 L 85.343 91.826 Z  M 106.811 162.734 C 91.691 168.732 74.426 169.324 58.204 163.245 L 61.653 155.261 C 62.4 153.53 61.583 151.587 59.908 150.864 C 58.177 150.116 56.235 150.933 55.511 152.608 L 52.063 160.592 C 20.97 145.307 6.444 108.691 18.602 76.248 L 26.586 79.696 C 28.317 80.444 30.26 79.627 30.983 77.952 C 31.731 76.221 30.914 74.278 29.239 73.555 L 21.255 70.106 C 36.54 39.014 73.156 24.488 105.599 36.646 L 102.151 44.63 C 101.403 46.361 102.22 48.304 103.895 49.027 C 105.626 49.775 107.569 48.958 108.292 47.283 L 111.741 39.299 C 142.834 54.584 157.36 91.2 145.201 123.643 L 137.217 120.195 C 135.486 119.447 133.543 120.264 132.82 121.939 C 132.072 123.67 132.889 125.613 134.564 126.336 L 142.548 129.785 C 134.906 145.331 121.931 156.736 106.811 162.734 L 106.811 162.734 Z " fill-rule="evenodd" fill="url(#_lgradient_5)"/><path d=" M 111.4 16.26 L 106.73 14.24 C 106.01 13.94 105.54 13.23 105.54 12.44 C 105.54 12.17 105.59 11.9 105.7 11.65 L 109.03 3.95 C 109.34 3.23 110.05 2.75 110.83 2.75 C 111.1 2.75 111.37 2.81 111.62 2.92 L 132.17 11.79 C 132.89 12.1 133.36 12.81 133.36 13.59 C 133.36 13.86 133.31 14.13 133.2 14.38 L 129.87 22.09 C 129.56 22.81 128.85 23.28 128.07 23.28 C 127.8 23.28 127.53 23.23 127.28 23.12 L 122.61 21.1 L 118.48 30.66 C 131.42 37.51 142.17 47.86 149.49 60.53 L 150.48 60.01 L 149.54 58.21 C 149.38 57.93 149.29 57.6 149.3 57.28 C 149.31 56.54 149.73 55.87 150.4 55.55 L 157.85 51.72 C 158.13 51.56 158.46 51.47 158.78 51.48 C 159.52 51.49 160.19 51.91 160.51 52.58 L 168.26 67.82 C 168.42 68.1 168.51 68.43 168.51 68.75 C 168.5 69.49 168.07 70.16 167.41 70.47 L 159.95 74.31 C 159.67 74.47 159.35 74.56 159.02 74.55 C 158.28 74.54 157.61 74.11 157.29 73.44 L 156.62 72.08 L 155.24 72.8 C 158.47 81.52 160.13 90.75 160.13 100.05 C 160.12 110.67 157.97 121.17 153.81 130.93 C 150.7 138.13 146.54 144.81 141.44 150.77 C 136.52 156.52 130.78 161.52 124.41 165.61 C 111.72 173.79 96.95 178.14 81.86 178.15 C 71.23 178.14 60.71 175.96 50.96 171.74 C 43.77 168.64 37.08 164.47 31.13 159.38 C 25.38 154.45 20.38 148.71 16.28 142.34 C 8.11 129.65 3.76 114.88 3.75 99.79 C 3.76 89.16 5.94 78.64 10.16 68.89 C 14.27 59.35 20.26 50.72 27.76 43.53 C 34.79 36.79 43.02 31.42 52.02 27.69 L 51.86 27.16 L 50.39 27.61 C 50.19 27.67 49.98 27.7 49.77 27.7 C 48.92 27.68 48.18 27.1 47.95 26.28 L 45.62 18.2 C 45.56 18 45.53 17.8 45.53 17.59 C 45.55 16.74 46.13 16 46.95 15.77 L 63.39 10.96 C 63.59 10.9 63.8 10.87 64 10.87 C 64.85 10.89 65.6 11.47 65.82 12.29 L 68.15 20.37 C 68.21 20.56 68.24 20.77 68.24 20.98 C 68.22 21.83 67.64 22.57 66.82 22.8 L 64.84 23.36 L 64.91 23.61 C 70.53 22.32 76.27 21.67 82.03 21.68 C 90.61 21.68 99.12 23.1 107.24 25.88 L 111.4 16.26 Z  M 63.92 12.89 L 66.22 20.89 L 64.26 21.44 C 63.85 21.55 63.48 21.78 63.22 22.12 C 62.96 22.46 62.82 22.87 62.83 23.3 C 62.83 23.49 62.86 23.69 62.91 23.87 L 63.25 25.07 C 63.32 25.32 63.48 25.53 63.71 25.66 C 63.93 25.79 64.19 25.83 64.45 25.77 C 70.2 24.38 76.11 23.67 82.03 23.68 C 90.69 23.68 99.29 25.17 107.46 28.07 C 107.7 28.15 107.96 28.14 108.19 28.04 C 108.42 27.94 108.61 27.75 108.71 27.52 L 113.24 17.03 C 113.35 16.78 113.41 16.51 113.41 16.23 C 113.4 15.45 112.93 14.74 112.21 14.43 L 107.55 12.42 L 110.85 4.76 L 131.35 13.61 L 128.04 21.27 L 123.38 19.26 C 123.13 19.15 122.86 19.09 122.59 19.09 C 121.8 19.09 121.09 19.57 120.78 20.29 L 116.28 30.72 C 116.18 30.96 116.17 31.22 116.25 31.46 C 116.34 31.7 116.51 31.89 116.74 32.01 C 129.98 38.81 140.93 49.37 148.23 62.35 C 148.35 62.58 148.56 62.75 148.81 62.82 C 149.06 62.89 149.33 62.87 149.56 62.75 L 151.42 61.78 C 152.08 61.47 152.5 60.81 152.51 60.08 C 152.51 59.76 152.43 59.44 152.29 59.16 C 152.29 59.15 152.29 59.15 152.28 59.15 L 151.33 57.32 L 158.74 53.51 L 166.47 68.71 L 159.06 72.51 L 158.39 71.15 C 158.08 70.48 157.41 70.06 156.68 70.05 C 156.36 70.05 156.05 70.12 155.76 70.27 C 155.76 70.27 155.75 70.27 155.75 70.27 L 153.52 71.43 C 153.31 71.55 153.14 71.74 153.05 71.97 C 152.97 72.2 152.97 72.45 153.05 72.68 C 156.41 81.42 158.13 90.69 158.13 100.05 C 158.12 110.4 156.02 120.63 151.97 130.15 C 148.95 137.15 144.89 143.67 139.92 149.47 C 135.12 155.07 129.53 159.94 123.33 163.93 C 110.96 171.9 96.56 176.14 81.86 176.15 C 71.5 176.14 61.26 174.01 51.75 169.9 C 44.74 166.88 38.23 162.82 32.43 157.86 C 26.83 153.06 21.96 147.46 17.97 141.26 C 10 128.89 5.76 114.5 5.75 99.79 C 5.76 89.43 7.88 79.19 11.99 69.68 C 16 60.38 21.83 51.98 29.14 44.97 C 36.22 38.2 44.52 32.85 53.61 29.2 C 53.84 29.11 54.03 28.93 54.14 28.71 C 54.25 28.48 54.27 28.22 54.19 27.98 L 53.77 26.56 C 53.66 26.15 53.42 25.79 53.09 25.53 C 52.75 25.27 52.34 25.13 51.91 25.14 C 51.71 25.14 51.52 25.17 51.33 25.23 L 49.86 25.68 L 47.56 17.68 L 63.92 12.89 Z  M 107.18 163.66 C 99.1 166.87 90.49 168.52 81.8 168.53 C 73.62 168.53 65.51 167.05 57.85 164.18 C 57.6 164.09 57.39 163.89 57.28 163.64 C 57.18 163.38 57.18 163.1 57.29 162.85 L 60.73 154.86 C 60.73 154.86 60.74 154.86 60.74 154.86 C 60.86 154.57 60.93 154.25 60.93 153.93 C 60.93 153 60.37 152.15 59.51 151.78 C 59.22 151.65 58.9 151.59 58.57 151.59 C 57.64 151.59 56.8 152.15 56.43 153 C 56.43 153 56.43 153 56.43 153 L 52.98 160.99 C 52.87 161.24 52.67 161.44 52.41 161.53 C 52.15 161.63 51.87 161.61 51.62 161.49 C 39.99 155.77 30.22 146.85 23.46 135.79 C 16.84 124.97 13.33 112.53 13.32 99.84 C 13.32 91.66 14.79 83.55 17.67 75.9 C 17.76 75.64 17.96 75.43 18.21 75.33 C 18.46 75.22 18.75 75.22 19 75.33 L 26.98 78.78 C 26.98 78.78 26.98 78.78 26.98 78.78 C 27.28 78.91 27.6 78.97 27.92 78.97 C 28.85 78.97 29.7 78.41 30.07 77.56 C 30.19 77.26 30.26 76.94 30.26 76.62 C 30.26 75.69 29.7 74.84 28.84 74.47 C 28.84 74.47 28.84 74.47 28.84 74.47 L 20.86 71.02 C 20.61 70.92 20.41 70.71 20.32 70.45 C 20.22 70.2 20.24 69.91 20.36 69.67 C 26.08 58.03 34.99 48.26 46.06 41.5 C 56.88 34.88 69.32 31.37 82.01 31.36 C 90.19 31.37 98.3 32.84 105.95 35.71 C 106.21 35.81 106.41 36 106.52 36.25 C 106.63 36.51 106.63 36.79 106.52 37.04 L 103.07 45.03 C 103.07 45.03 103.07 45.03 103.07 45.03 C 102.94 45.32 102.87 45.64 102.87 45.96 C 102.88 46.9 103.43 47.74 104.29 48.11 C 104.59 48.24 104.91 48.3 105.23 48.31 C 106.16 48.3 107.01 47.74 107.37 46.89 C 107.37 46.89 107.37 46.89 107.37 46.89 L 110.82 38.9 C 110.93 38.65 111.14 38.46 111.4 38.36 C 111.65 38.27 111.94 38.28 112.18 38.4 C 123.82 44.12 133.58 53.04 140.34 64.1 C 146.97 74.92 150.48 87.36 150.48 100.05 C 150.48 108.23 149.01 116.34 146.14 123.99 C 146.04 124.25 145.84 124.46 145.59 124.56 C 145.34 124.67 145.06 124.67 144.8 124.56 L 136.82 121.11 C 136.82 121.11 136.82 121.11 136.82 121.11 C 136.52 120.98 136.21 120.92 135.88 120.92 C 134.95 120.92 134.11 121.48 133.74 122.34 C 133.61 122.63 133.54 122.95 133.54 123.27 C 133.54 124.2 134.1 125.05 134.96 125.42 C 134.96 125.42 134.96 125.42 134.96 125.42 L 142.94 128.87 C 143.2 128.98 143.39 129.18 143.49 129.44 C 143.58 129.7 143.57 129.98 143.45 130.23 C 139.67 137.91 134.48 144.81 128.16 150.58 C 122.01 156.17 114.9 160.6 107.18 163.66 Z  M 106.44 161.8 C 98.6 164.92 90.23 166.52 81.79 166.53 C 74.21 166.53 66.68 165.22 59.54 162.67 L 62.57 155.66 C 62.81 155.11 62.93 154.52 62.93 153.93 C 62.93 152.2 61.89 150.63 60.3 149.95 C 59.76 149.71 59.17 149.59 58.57 149.59 C 56.85 149.59 55.28 150.62 54.59 152.21 L 51.56 159.22 C 40.68 153.65 31.54 145.18 25.17 134.75 C 18.73 124.24 15.33 112.16 15.32 99.84 C 15.32 92.25 16.63 84.73 19.18 77.59 L 26.19 80.61 C 26.74 80.85 27.32 80.97 27.92 80.97 C 29.65 80.97 31.22 79.94 31.9 78.35 C 32.14 77.8 32.26 77.21 32.26 76.62 C 32.26 74.89 31.22 73.32 29.63 72.64 L 22.62 69.61 C 28.19 58.72 36.67 49.59 47.1 43.21 C 57.61 36.78 69.69 33.37 82.01 33.36 C 89.59 33.37 97.12 34.67 104.26 37.22 L 101.23 44.23 C 101 44.78 100.87 45.37 100.87 45.96 C 100.88 47.69 101.91 49.26 103.5 49.95 C 104.04 50.18 104.63 50.3 105.23 50.31 C 106.96 50.3 108.53 49.27 109.21 47.68 L 112.24 40.67 C 123.12 46.24 132.26 54.71 138.64 65.14 C 145.07 75.65 148.48 87.73 148.48 100.05 C 148.48 107.64 147.18 115.16 144.63 122.31 L 137.61 119.28 C 137.07 119.04 136.48 118.92 135.88 118.92 C 134.15 118.92 132.59 119.95 131.9 121.54 C 131.67 122.09 131.54 122.68 131.54 123.27 C 131.54 125 132.58 126.57 134.17 127.25 L 141.18 130.28 C 137.56 137.37 132.69 143.74 126.81 149.1 C 120.84 154.53 113.94 158.83 106.44 161.8 Z  M 90.64 95.55 L 134.85 100.99 L 90.31 104.66 C 88.58 107.71 85.33 109.61 81.82 109.62 C 80.51 109.62 79.21 109.35 78 108.82 C 76.25 108.07 74.76 106.82 73.71 105.22 C 72.67 103.63 72.11 101.77 72.11 99.86 C 72.11 98.53 72.38 97.22 72.91 96 C 73.67 94.25 74.92 92.76 76.51 91.71 C 78.1 90.66 79.97 90.11 81.87 90.11 C 83.2 90.11 84.52 90.38 85.74 90.91 C 87.87 91.82 89.61 93.47 90.64 95.55 Z  M 89.84 97.46 L 115.27 100.59 L 89.6 102.71 C 89.25 102.74 88.94 102.95 88.79 103.26 C 87.48 105.92 84.78 107.61 81.82 107.62 C 80.78 107.62 79.75 107.4 78.79 106.99 C 77.4 106.39 76.22 105.39 75.39 104.13 C 74.55 102.86 74.11 101.38 74.11 99.86 C 74.11 98.81 74.33 97.76 74.75 96.79 C 75.35 95.4 76.34 94.21 77.61 93.38 C 78.88 92.55 80.36 92.11 81.87 92.11 C 82.93 92.11 83.98 92.32 84.95 92.74 C 86.79 93.54 88.26 95.01 89.04 96.86 C 89.18 97.19 89.48 97.42 89.84 97.46 Z " fill-rule="evenodd" fill="rgb(0,0,0)"/></g></g></g></svg>