<svg xmlns="http://www.w3.org/2000/svg" width="15.716" height="15.72" viewBox="0 0 15.716 15.72"><defs><style>.a{fill:#707070;}</style></defs><path class="a" d="M18.919,12.358a2.022,2.022,0,0,1,1.3-1.887,8.016,8.016,0,0,0-.97-2.337,2.049,2.049,0,0,1-.823.176,2.018,2.018,0,0,1-1.846-2.84,7.992,7.992,0,0,0-2.333-.97,2.021,2.021,0,0,1-3.773,0,8.016,8.016,0,0,0-2.337.97A2.018,2.018,0,0,1,6.289,8.31a1.983,1.983,0,0,1-.823-.176A8.193,8.193,0,0,0,4.5,10.475a2.022,2.022,0,0,1,0,3.773,8.016,8.016,0,0,0,.97,2.337A2.019,2.019,0,0,1,8.138,19.25a8.063,8.063,0,0,0,2.337.97,2.017,2.017,0,0,1,3.765,0,8.016,8.016,0,0,0,2.337-.97,2.021,2.021,0,0,1,2.664-2.664,8.063,8.063,0,0,0,.97-2.337A2.032,2.032,0,0,1,18.919,12.358Zm-6.524,3.27a3.274,3.274,0,1,1,3.274-3.274A3.273,3.273,0,0,1,12.395,15.628Z" transform="translate(-4.5 -4.5)"/></svg>